<svg width="54" height="55" viewBox="0 0 54 55" fill="none" xmlns="http://www.w3.org/2000/svg">
<rect width="54" height="55" rx="10" fill="url(#paint0_linear_3536_1004)" fill-opacity="0.2"/>
<g clip-path="url(#clip0_3536_1004)">
<path d="M31.0686 28.7731C26.3914 28.7394 22.6902 24.98 22.7249 20.2972C22.7586 15.7475 26.5883 12.0097 31.1708 12.0537C35.818 12.0978 39.4939 15.8872 39.4555 20.5944C39.4189 25.0934 35.6127 28.805 31.0677 28.7722L31.0686 28.7731ZM32.7224 22.6803C32.7149 23.5109 32.1439 24.1522 31.2917 24.2872C30.5483 24.4053 29.7842 23.929 29.5433 23.1828C29.487 23.0075 29.4814 22.8162 29.4505 22.6325C29.3877 22.2594 29.1514 22.054 28.8083 22.0737C28.4699 22.0934 28.2664 22.3325 28.2617 22.7169C28.2477 23.8803 29.023 24.9556 30.1799 25.3409C30.4152 25.4197 30.5258 25.5097 30.507 25.774C30.4827 26.1359 30.4949 26.5006 30.5033 26.8634C30.5127 27.2731 30.7283 27.5056 31.0845 27.5084C31.4417 27.5112 31.6695 27.2853 31.6874 26.8775C31.7033 26.5269 31.7108 26.1734 31.6874 25.8237C31.6686 25.5472 31.7567 25.4215 32.0295 25.3278C33.5361 24.8047 34.2992 23.1697 33.7536 21.6828C33.343 20.5644 32.3652 19.8875 31.0695 19.8256C30.2089 19.7844 29.5208 19.1478 29.4674 18.3453C29.4064 17.4303 29.952 16.7281 30.8511 16.5631C31.6236 16.4215 32.4299 16.94 32.6567 17.734C32.7017 17.8897 32.7027 18.0575 32.7317 18.2178C32.7983 18.5862 33.058 18.8075 33.3786 18.7775C33.7105 18.7456 33.913 18.4962 33.9149 18.1165C33.9214 16.9559 33.1405 15.8769 31.9836 15.499C31.7389 15.4194 31.6789 15.3097 31.6883 15.0781C31.7033 14.7153 31.7014 14.3515 31.6883 13.9887C31.6733 13.564 31.4361 13.3203 31.0724 13.3306C30.7236 13.34 30.5089 13.5809 30.5014 13.9906C30.4939 14.3656 30.4902 14.7406 30.5024 15.1156C30.5089 15.32 30.4414 15.4006 30.2417 15.4897C29.8517 15.664 29.4505 15.8619 29.1355 16.1422C28.288 16.8978 28.0114 18.155 28.4417 19.2022C28.9208 20.3712 29.8283 20.9628 31.0799 21.0265C32.0408 21.0753 32.728 21.7578 32.7195 22.6812L32.7224 22.6803Z" fill="#29ECE7"/>
<path d="M16.1472 33.8554C16.9356 33.8554 17.6894 33.9088 18.4319 33.8441C19.8878 33.7166 21.28 33.3013 22.6 32.6779C23.3894 32.3047 24.1356 32.3029 24.925 32.6685C27.1112 33.6791 29.3078 34.6654 31.4987 35.6657C31.6562 35.7379 31.8175 35.8232 31.9431 35.9394C32.2253 36.2 32.2787 36.6107 32.1044 36.9388C31.93 37.266 31.5353 37.4629 31.1518 37.3916C29.2553 37.0382 27.3606 36.6791 25.465 36.3229C25.27 36.2863 25.075 36.2432 24.8781 36.2169C24.4403 36.1607 24.1628 36.3313 24.1056 36.681C24.0437 37.0579 24.2537 37.3241 24.6897 37.4066C25.4594 37.5529 26.229 37.6935 26.9997 37.836C28.3215 38.0807 29.6425 38.3291 30.9653 38.5672C31.7922 38.7163 32.455 38.4266 32.9837 37.7882C33.0925 37.6569 33.2209 37.5285 33.3653 37.4413C35.6856 36.0529 38.0087 34.671 40.3328 33.29C41.1428 32.8091 42.0559 32.9975 42.5237 33.7316C42.9887 34.46 42.7984 35.36 42.0409 35.8907C39.0775 37.9663 36.114 40.0429 33.1375 42.0988C31.8878 42.9622 30.505 43.1441 29.0472 42.7307C24.8537 41.5391 20.6631 40.341 16.4687 39.1532C16.2194 39.0829 16.1125 38.9891 16.1153 38.706C16.1312 37.2182 16.1228 35.7304 16.1237 34.2425C16.1237 34.1394 16.135 34.0363 16.1444 33.8572L16.1472 33.8554Z" fill="#29ECE7"/>
<path d="M11.25 36.8149C11.25 35.4443 11.25 34.0728 11.25 32.7021C11.25 32.1453 11.4572 31.9343 12.0075 31.9324C12.7341 31.9306 13.4616 31.9296 14.1881 31.9324C14.7019 31.9343 14.9278 32.1424 14.9288 32.6496C14.9334 35.4153 14.9334 38.1809 14.9288 40.9465C14.9288 41.4715 14.7009 41.6853 14.1684 41.6881C13.4531 41.6928 12.7378 41.6918 12.0234 41.6881C11.4609 41.6853 11.25 41.4659 11.25 40.8921C11.25 39.5328 11.25 38.1734 11.25 36.814V36.8149Z" fill="#29ECE7"/>
</g>
<defs>
<linearGradient id="paint0_linear_3536_1004" x1="1.20817e-08" y1="28.3245" x2="54.0057" y2="28.1119" gradientUnits="userSpaceOnUse">
<stop stop-color="#24F3EA"/>
<stop offset="1" stop-color="#24F3EA"/>
</linearGradient>
<clipPath id="clip0_3536_1004">
<rect width="36" height="36" fill="white" transform="translate(9 9.5)"/>
</clipPath>
</defs>
</svg>
