<svg width="54" height="55" viewBox="0 0 54 55" fill="none" xmlns="http://www.w3.org/2000/svg">
<rect width="54" height="55" rx="10" fill="url(#paint0_linear_3536_1031)" fill-opacity="0.2"/>
<g clip-path="url(#clip0_3536_1031)">
<path d="M20.2733 17.25C20.2733 16.26 20.2733 15.2625 20.2733 14.2725C20.2733 13.7625 20.3708 13.65 20.8433 13.4775C22.7708 12.7875 24.6908 12.09 26.6183 11.4225C26.8433 11.3475 27.1358 11.3325 27.3533 11.4075C29.3033 12.0825 31.2458 12.795 33.1958 13.485C33.5183 13.5975 33.7208 13.785 33.7283 14.1375C33.7434 16.125 33.7958 18.1125 33.7508 20.1C33.7133 21.8025 32.8508 23.145 31.5833 24.225C30.2858 25.335 28.7633 25.995 27.1358 26.445C27.0608 26.4675 26.9708 26.475 26.8958 26.4525C25.0508 25.9275 23.3333 25.17 21.9533 23.79C20.7533 22.59 20.1683 21.135 20.2133 19.4325C20.2358 18.705 20.2133 17.985 20.2133 17.2575C20.2283 17.2575 20.2508 17.2575 20.2658 17.2575L20.2733 17.25ZM26.2433 18.7875C25.8608 18.3975 25.5233 18.03 25.1558 17.685C24.8858 17.4225 24.5708 17.43 24.3458 17.67C24.1283 17.895 24.1283 18.21 24.3683 18.4575C24.8483 18.9525 25.3358 19.44 25.8383 19.92C26.1158 20.1825 26.3933 20.175 26.6783 19.905C26.8733 19.7175 27.0608 19.53 27.2483 19.335C28.0283 18.555 28.8083 17.7825 29.5808 17.0025C29.9183 16.665 29.8283 16.17 29.4233 16.035C29.1608 15.9525 28.9508 16.0575 28.7633 16.245C27.9383 17.0775 27.1133 17.9025 26.2358 18.7875H26.2433Z" fill="#29ECE7"/>
<path d="M26.9702 42.75C24.9677 42.75 22.9652 42.75 20.9627 42.75C19.9952 42.75 19.3877 42.18 19.3952 41.22C19.3952 40.4475 19.3652 39.6675 19.5077 38.9175C19.7627 37.59 20.6327 36.72 21.8927 36.2475C22.3277 36.0825 22.7777 35.94 23.2277 35.82C23.3402 35.79 23.5052 35.82 23.5952 35.8875C25.6877 37.5225 28.2977 37.53 30.3977 35.91C30.4952 35.835 30.6752 35.7975 30.7952 35.835C31.2752 35.9775 31.7552 36.135 32.2202 36.315C33.6452 36.8475 34.5827 38.16 34.6052 39.675C34.6127 40.2375 34.6127 40.8 34.6052 41.355C34.5902 42.165 33.9752 42.7575 33.1652 42.765C31.1027 42.765 29.0402 42.765 26.9777 42.765L26.9702 42.75Z" fill="#29ECE7"/>
<path d="M22.7634 31.7475C22.7634 29.445 24.6909 27.525 26.9934 27.5325C29.3259 27.5325 31.2234 29.43 31.2234 31.74C31.2234 34.11 29.3409 36.0075 26.9784 36.0075C24.6459 36.0075 22.7559 34.095 22.7559 31.7475H22.7634Z" fill="#29ECE7"/>
<path d="M32.9766 32.4C32.9766 30.4575 34.5591 28.89 36.5166 28.8975C38.4741 28.905 40.0266 30.4725 40.0191 32.4375C40.0191 34.3725 38.4441 35.94 36.5166 35.94C34.5441 35.94 32.9766 34.3725 32.9766 32.4Z" fill="#29ECE7"/>
<path d="M21.023 32.415C21.023 34.365 19.448 35.9475 17.5055 35.94C15.5405 35.94 13.973 34.3575 13.9805 32.385C13.988 30.4575 15.548 28.905 17.498 28.8975C19.448 28.89 21.023 30.4575 21.023 32.415Z" fill="#29ECE7"/>
<path d="M35.7148 41.4075C35.7598 39.7425 35.8423 38.1 34.6348 36.72C35.1073 36.825 35.5123 36.945 35.9248 36.9975C37.3423 37.1775 38.5798 36.7575 39.6523 35.8275C39.7423 35.7525 39.9223 35.7075 40.0423 35.7375C40.6723 35.91 41.2948 36.12 41.7823 36.5925C42.4123 37.2 42.7498 37.9275 42.7573 38.805C42.7573 39.24 42.7573 39.6675 42.7573 40.1025C42.7573 40.815 42.2548 41.385 41.5423 41.3925C39.6223 41.415 37.7023 41.4 35.7148 41.4V41.4075Z" fill="#29ECE7"/>
<path d="M19.2822 36.72C18.1347 38.1075 18.2472 39.7425 18.2847 41.415H17.8797C16.1622 41.415 14.4372 41.3925 12.7197 41.4225C11.8722 41.4375 11.1747 40.8525 11.2497 39.945C11.2947 39.375 11.2272 38.79 11.3322 38.235C11.5347 37.095 12.2547 36.3675 13.3197 35.94C13.8597 35.7225 14.2497 35.7075 14.7747 36.12C16.0047 37.095 17.4447 37.2825 18.9522 36.81C19.0647 36.7725 19.1697 36.7425 19.2822 36.7125V36.72Z" fill="#29ECE7"/>
</g>
<defs>
<linearGradient id="paint0_linear_3536_1031" x1="1.20817e-08" y1="28.3245" x2="54.0057" y2="28.1119" gradientUnits="userSpaceOnUse">
<stop stop-color="#24F3EA"/>
<stop offset="1" stop-color="#24F3EA"/>
</linearGradient>
<clipPath id="clip0_3536_1031">
<rect width="36" height="36" fill="white" transform="translate(9 9)"/>
</clipPath>
</defs>
</svg>
