<svg width="54" height="55" viewBox="0 0 54 55" fill="none" xmlns="http://www.w3.org/2000/svg">
<rect width="54" height="55" rx="10" fill="url(#paint0_linear_3536_1014)" fill-opacity="0.2"/>
<g clip-path="url(#clip0_3536_1014)">
<path d="M14.504 40.7054C14.2047 40.5531 14.1038 40.3113 14.1118 39.9775C14.1286 39.2143 14.1135 38.4511 14.1162 37.687C14.1171 37.2319 14.2844 37.061 14.7324 37.061C18.1183 37.0583 21.5041 37.0565 24.8899 37.0557C25.3424 37.0557 25.4991 37.2142 25.5026 37.6817C25.5088 38.467 25.5097 39.2533 25.5071 40.0386C25.5053 40.4973 25.3459 40.6602 24.8891 40.6646C24.2693 40.6708 23.6495 40.6646 23.0306 40.6682C22.911 40.6682 22.7915 40.6921 22.672 40.7054H14.504Z" fill="#29ECE7"/>
<path d="M30.9044 40.7053C30.2758 40.692 29.6471 40.6796 29.0185 40.6672C28.8751 40.6646 28.7307 40.6726 28.5873 40.6628C28.2517 40.6407 28.0773 40.4787 28.0738 40.1378C28.0631 39.286 28.064 38.4333 28.0764 37.5816C28.0817 37.223 28.2641 37.0565 28.621 37.0565C32.0511 37.0565 35.4812 37.0565 38.9113 37.0618C39.2778 37.0618 39.4567 37.2469 39.4593 37.6205C39.4655 38.4502 39.4549 39.2807 39.4629 40.1103C39.4655 40.406 39.3 40.5707 39.0733 40.7053H30.9053H30.9044Z" fill="#29ECE7"/>
<path d="M37.6075 35.9683H30.054C30.054 35.3424 30.0407 34.7358 30.0567 34.1311C30.0841 33.1138 30.1001 32.0955 30.1744 31.0808C30.2771 29.6783 30.8624 28.468 31.8806 27.5126C33.5266 25.9684 35.208 24.4615 36.8939 22.9598C37.6739 22.2656 38.7851 22.3559 39.4465 23.113C40.0911 23.8505 40.0123 24.9414 39.2482 25.6408C38.1299 26.6644 37.0019 27.6773 35.8783 28.6955C35.8207 28.7478 35.7614 28.7974 35.7056 28.8505C35.4285 29.1117 35.3931 29.4322 35.6135 29.6668C35.8243 29.89 36.1439 29.89 36.4122 29.6527C36.7938 29.3153 37.1692 28.9718 37.5455 28.6291C38.4053 27.8473 39.2907 27.092 40.1168 26.2766C41.483 24.9281 41.1093 22.6349 39.4093 21.7441C39.3996 21.7388 39.3907 21.73 39.3801 21.7282C38.786 21.6467 38.7913 21.2386 38.8117 20.7684C38.8728 19.3641 38.9002 17.959 38.9392 16.5538C38.9666 15.5595 39.7396 14.8051 40.733 14.8069C41.7079 14.8087 42.5056 15.5852 42.5109 16.576C42.5154 17.3277 42.4746 18.0803 42.4552 18.8329C42.3702 22.0629 42.2878 25.2929 42.2002 28.5229C42.1674 29.7509 41.6609 30.7621 40.764 31.5864C40.3567 31.9609 39.9574 32.3461 39.5306 32.6967C38.4876 33.5538 37.72 34.5685 37.6057 35.9675L37.6075 35.9683Z" fill="#29ECE7"/>
<path d="M23.5451 35.9746H15.9961C15.9314 35.6824 15.8818 35.3902 15.8004 35.1077C15.5631 34.287 15.0788 33.6255 14.4475 33.0615C13.9109 32.5825 13.3779 32.0991 12.8449 31.6165C11.924 30.7825 11.4052 29.7572 11.3724 28.5025C11.2874 25.2167 11.2024 21.9318 11.1174 18.6461C11.0997 17.9599 11.0616 17.2746 11.0625 16.5884C11.0643 15.679 11.7726 14.8919 12.6288 14.8113C13.5806 14.7219 14.4067 15.2912 14.5918 16.2147C14.6688 16.6008 14.6485 17.0072 14.66 17.4047C14.6989 18.7647 14.7326 20.1247 14.768 21.5007C14.1553 21.6981 13.6302 22.0053 13.2362 22.5136C12.3464 23.6628 12.4163 25.2867 13.47 26.289C14.6803 27.44 15.9358 28.5441 17.1763 29.6642C17.4384 29.9006 17.7687 29.8855 17.9732 29.6527C18.1813 29.4163 18.1379 29.094 17.8537 28.8363C16.6814 27.7729 15.5038 26.7166 14.335 25.6497C13.5054 24.8918 13.4762 23.7204 14.2553 22.9802C14.9442 22.3259 15.9863 22.3347 16.7478 23.0129C17.434 23.6239 18.1104 24.2446 18.7913 24.8608C19.6688 25.6559 20.5444 26.4537 21.4245 27.2452C22.758 28.4441 23.4185 29.9449 23.4575 31.729C23.4858 33.0341 23.515 34.3401 23.5433 35.6452C23.5451 35.7435 23.5433 35.8426 23.5433 35.9746H23.5451Z" fill="#29ECE7"/>
<path d="M29.3587 18.3929C30.006 18.9436 30.3823 19.6112 30.439 20.4355C30.4699 20.8871 30.4576 21.3422 30.4576 21.7964C30.4576 22.2949 30.3504 22.4038 29.8537 22.4047C28.0944 22.4064 26.3342 22.4056 24.5748 22.4047C24.2428 22.4047 23.9108 22.4082 23.5787 22.4011C23.3459 22.3958 23.136 22.3002 23.1387 22.0461C23.1467 21.3404 23.129 20.6259 23.2343 19.9326C23.3291 19.3101 23.7133 18.8028 24.2162 18.4035C25.7064 20.1504 28.0705 19.9636 29.3587 18.392V18.3929Z" fill="#29ECE7"/>
<path d="M17.868 17.2958C19.298 18.9799 21.6541 18.9144 23.0114 17.2958C23.138 17.4101 23.2638 17.5243 23.3266 17.5801C22.9671 18.1786 22.543 18.7063 22.3199 19.3084C22.0959 19.914 22.0738 20.594 21.9551 21.2891C21.9365 21.2908 21.8418 21.305 21.747 21.305C20.2879 21.3068 18.8278 21.3068 17.3687 21.305C16.9003 21.305 16.7497 21.166 16.7692 20.6888C16.7958 20.0406 16.8002 19.3845 16.9109 18.7497C17.0136 18.1618 17.3864 17.6916 17.8671 17.2941L17.868 17.2958Z" fill="#29ECE7"/>
<path d="M35.6977 17.2853C36.399 17.882 36.7567 18.6045 36.8036 19.4731C36.8284 19.9247 36.8116 20.3789 36.808 20.8322C36.8054 21.1227 36.6513 21.3015 36.3635 21.3024C34.7831 21.3077 33.2026 21.3024 31.6221 21.2989C31.6027 21.2989 31.5832 21.282 31.5177 21.2519C31.6221 19.8822 31.2441 18.6559 30.1523 17.6616C30.2834 17.5234 30.4011 17.4004 30.5393 17.2543C31.2582 18.0874 32.0932 18.539 33.1459 18.5355C34.1872 18.5319 35.0133 18.0848 35.6977 17.2844V17.2853Z" fill="#29ECE7"/>
<path d="M24.6504 16.4344C24.6495 15.2471 25.612 14.2802 26.7931 14.2828C27.9742 14.2855 28.9296 15.2568 28.9225 16.4468C28.9154 17.62 27.9636 18.5771 26.7975 18.5833C25.619 18.5895 24.6513 17.6217 24.6504 16.4344Z" fill="#29ECE7"/>
<path d="M20.4315 17.465C19.2468 17.4614 18.2853 16.4919 18.295 15.3099C18.3047 14.1438 19.2654 13.1928 20.4377 13.1875C21.6171 13.1831 22.5946 14.1553 22.5928 15.332C22.591 16.5105 21.6215 17.4685 20.4315 17.465Z" fill="#29ECE7"/>
<path d="M33.1129 17.465C31.9468 17.4588 30.9853 16.4954 30.9844 15.332C30.9826 14.1553 31.9583 13.1848 33.1404 13.1875C34.3242 13.1902 35.2893 14.1597 35.2822 15.3426C35.276 16.5255 34.3082 17.472 33.1129 17.465Z" fill="#29ECE7"/>
</g>
<defs>
<linearGradient id="paint0_linear_3536_1014" x1="1.20817e-08" y1="28.3245" x2="54.0057" y2="28.1119" gradientUnits="userSpaceOnUse">
<stop stop-color="#24F3EA"/>
<stop offset="1" stop-color="#24F3EA"/>
</linearGradient>
<clipPath id="clip0_3536_1014">
<rect width="34" height="34" fill="white" transform="translate(10 10)"/>
</clipPath>
</defs>
</svg>
